<svg width="50" height="50" viewBox="0 0 50 50" fill="none" xmlns="http://www.w3.org/2000/svg">
<rect width="50" height="50" rx="10" fill="white"/>
<path d="M33.8248 25.7273L34.9938 19.299C35.0039 19.2436 35.0016 19.1866 34.9873 19.1321C34.9729 19.0777 34.9467 19.027 34.9106 18.9838C34.8745 18.9406 34.8294 18.9058 34.7784 18.8819C34.7273 18.858 34.6717 18.8457 34.6153 18.8457H18.7825L18.2556 15.9474C18.2073 15.6815 18.0672 15.4409 17.8597 15.2678C17.6522 15.0946 17.3905 14.9999 17.1202 15H15.3846C15.2826 15 15.1848 15.0405 15.1127 15.1126C15.0405 15.1848 15 15.2826 15 15.3846C15 15.4866 15.0405 15.5844 15.1127 15.6565C15.1848 15.7286 15.2826 15.7691 15.3846 15.7691H17.1202C17.2103 15.7691 17.2975 15.8007 17.3667 15.8584C17.4359 15.9161 17.4826 15.9962 17.4986 16.0849L20.1794 30.8269C19.8024 31.1015 19.5174 31.4838 19.362 31.9236C19.2066 32.3633 19.1881 32.8398 19.309 33.2903C19.4299 33.7407 19.6844 34.144 20.0391 34.4469C20.3937 34.7499 20.8319 34.9382 21.2957 34.9872C21.7596 35.0362 22.2274 34.9435 22.6375 34.7214C23.0477 34.4992 23.3809 34.158 23.5932 33.7427C23.8055 33.3274 23.887 32.8576 23.8269 32.3951C23.7668 31.9326 23.568 31.4991 23.2566 31.1518H29.8203C29.4683 31.5455 29.2621 32.0481 29.2361 32.5755C29.2101 33.1029 29.366 33.6233 29.6776 34.0496C29.9892 34.476 30.4378 34.7825 30.9482 34.9179C31.4587 35.0533 32.0002 35.0095 32.4822 34.7937C32.9642 34.5779 33.3576 34.2033 33.5966 33.7324C33.8355 33.2615 33.9056 32.7228 33.7952 32.2064C33.6847 31.69 33.4003 31.2272 32.9895 30.8953C32.5788 30.5633 32.0666 30.3824 31.5384 30.3827H20.8804L20.321 27.3062H31.9328C32.3832 27.3063 32.8194 27.1483 33.1651 26.8598C33.5109 26.5712 33.7444 26.1704 33.8248 25.7273ZM23.0769 32.6901C23.0769 32.9944 22.9867 33.2918 22.8176 33.5447C22.6486 33.7977 22.4083 33.9949 22.1272 34.1113C21.8461 34.2277 21.5367 34.2582 21.2383 34.1988C20.9399 34.1395 20.6658 33.993 20.4506 33.7778C20.2354 33.5627 20.0889 33.2886 20.0296 32.9902C19.9702 32.6918 20.0007 32.3825 20.1171 32.1014C20.2335 31.8204 20.4307 31.5801 20.6837 31.4111C20.9367 31.2421 21.2342 31.1518 21.5384 31.1518C21.9463 31.1523 22.3374 31.3145 22.6258 31.6029C22.9142 31.8913 23.0764 32.2823 23.0769 32.6901ZM33.0769 32.6901C33.0769 32.9944 32.9867 33.2918 32.8176 33.5447C32.6486 33.7977 32.4083 33.9949 32.1272 34.1113C31.8461 34.2277 31.5367 34.2582 31.2383 34.1988C30.9399 34.1395 30.6657 33.993 30.4506 33.7778C30.2354 33.5627 30.0889 33.2886 30.0295 32.9902C29.9702 32.6918 30.0006 32.3825 30.1171 32.1014C30.2335 31.8204 30.4307 31.5801 30.6837 31.4111C30.9367 31.2421 31.2341 31.1518 31.5384 31.1518C31.9463 31.1523 32.3374 31.3145 32.6258 31.6029C32.9142 31.8913 33.0764 32.2823 33.0769 32.6901ZM18.9224 19.6148H34.1545L33.0679 25.5897C33.0197 25.8556 32.8797 26.0961 32.6722 26.2692C32.4648 26.4423 32.2031 26.5371 31.9328 26.537H20.1811L18.9224 19.6148Z" fill="#323232"/>
</svg>
