<svg width="50" height="50" viewBox="0 0 50 50" fill="none" xmlns="http://www.w3.org/2000/svg">
<rect width="50" height="50" rx="10" fill="white"/>
<path d="M30 16C27.9169 16 26.3406 17.1693 25 18.3913C23.7225 17.0946 22.0831 16 20 16C17.0662 16 15 18.4128 15 21.0438C15 22.4552 15.6044 23.4721 16.2662 24.4268L24.0369 33.3378C24.9094 34.2207 25.0738 34.2207 25.9462 33.3378L33.7343 24.4268C34.5125 23.4721 35 22.4552 35 21.0438C35 18.4128 32.9337 16 30 16ZM32.5 24.1793L25 32.7388L17.5 24.144C16.6031 22.9514 16.25 22.1467 16.25 21.0438C16.25 18.9885 17.7844 17.1382 20 17.1209C21.8225 17.1065 23.8881 18.8868 25 20.2289C26.0825 18.9335 28.1775 17.1209 30 17.1209C32.1569 17.1209 33.75 18.9885 33.75 21.0438C33.75 22.1467 33.4706 23.0111 32.5 24.1793Z" fill="#323232"/>
</svg>
